<?xml version="1.0" encoding="UTF-8"?>
<svg id="Ebene_1" data-name="Ebene 1" xmlns="http://www.w3.org/2000/svg" viewBox="0 0 144 113.86">
  <defs>
    <style>
      .cls-1 {
        fill: #d2011f;
        stroke-width: 0px;
      }
    </style>
  </defs>
  <path class="cls-1" d="M144,53.62h-17.97s-2.38-.17-3.37.87c-.63.66-1.65,1.85-2.19,3.03-.37.82-1.39,2.53-2.41,5.08-3.44,8.55-7.2,17.41-12.17,25.85-8.89,14.83-16.08,22.21-18.83,22.21-1.25,0-1.95-.71-1.95-1.95,0-2.13.89-5.33,2.13-9.68l11.73-40.25c.18-.62.27-.97.27-1.33,0-.54-.27-.71-1.07-.71h-.35l-3.11.26c-1.69.09-1.78,1.25-2.84,4-1.59,4.09-3.99,10.75-8.88,19.54-11.11,19.9-20.08,29.41-23.1,29.41-.98,0-1.6-.8-1.6-2.13,0-2.31,2.13-7.19,4.97-15.19l21.31-68.02c3.46-9.6,5.77-15.72,5.77-18.66,0-3.11-2.13-5.33-4.8-5.33-5.69,0-17.15,12.79-30.65,39.09l7.1-26.65c.98-3.64,1.51-5.95,1.51-6.84,0-4.09-1.87-6.22-5.07-6.22-6.39,0-16.88,12.52-30.02,38.02,0,0-3.83,7.21-6.71,12.73-.54,1.15-1.15,2.33-1.81,2.66-.25.12-.88.18-1.56.21H0v3.5h21.18l-.05-.12c.61-.08,1.22-.21,1.56-.43.76-.5,1.27-2.12,1.27-2.12.27-.82.62-1.88,1.06-3.19,3.02-8.71,7.2-17.41,12.17-25.85C46.07,10.57,53.27,3.2,56.02,3.2c1.25,0,1.96.71,1.96,1.96,0,2.13-.89,5.33-2.13,9.68l-11.73,40.24c-.18.62-.27.98-.27,1.33,0,.53.27.71,1.07.71h.36l3.11-.27c1.69-.09,1.78-1.25,2.84-4,1.6-4.09,4-10.75,8.88-19.54,11.11-19.9,20.08-29.4,23.1-29.4.98,0,1.6.8,1.6,2.13,0,2.31-2.14,7.2-4.98,15.19l-21.3,68.02c-3.46,9.59-5.77,15.73-5.77,18.66,0,3.11,2.13,5.33,4.8,5.33,5.68,0,17.14-12.8,30.65-39.09l-7.11,26.65c-.98,3.64-1.51,5.95-1.51,6.84,0,4.08,1.87,6.22,5.07,6.22,6.39,0,16.88-12.53,30.03-38.02,0,0,5.82-10.96,8.51-16.2.63-1.22,1.09-2.52,2.07-2.52h18.73c0-1.16-.01-2.42,0-3.5Z"/>
</svg>